<svg viewBox="0 0 25 16.3489" xmlns="http://www.w3.org/2000/svg" xmlns:xlink="http://www.w3.org/1999/xlink" width="25.000000" height="16.348877" fill="none" customFrame="#000000">
	<path id="Union" d="M5 2.5C5 3.88071 3.88071 5 2.5 5C1.11929 5 0 3.88071 0 2.5C0 1.11929 1.11929 0 2.5 0C3.88071 0 5 1.11929 5 2.5ZM25 2.5C25 3.88071 23.8807 5 22.5 5C21.1193 5 20 3.88071 20 2.5C20 1.11929 21.1193 0 22.5 0C23.8807 0 25 1.11929 25 2.5ZM14.1335 0.982396C14.7596 1.52496 14.8272 2.47229 14.2847 3.09833L3.24946 15.8313C2.7069 16.4573 1.75957 16.525 1.13353 15.9824C0.5075 15.4398 0.439834 14.4925 0.982395 13.8665L12.0176 1.13353C12.5602 0.5075 13.5075 0.439834 14.1335 0.982396ZM18.184 6.92091C18.8379 7.42952 18.9558 8.37193 18.4471 9.02585L13.289 15.6578C12.7804 16.3117 11.8379 16.4295 11.184 15.9209C10.5301 15.4123 10.4123 14.4699 10.9209 13.816L16.0791 7.18403C16.5877 6.53011 17.5301 6.41231 18.184 6.92091Z" fill="rgb(220.575,156.315,59.925)" fill-rule="evenodd" />
</svg>
